<?xml version="1.0" standalone="no"?><!DOCTYPE svg PUBLIC "-//W3C//DTD SVG 1.1//EN"
  "http://www.w3.org/Graphics/SVG/1.1/DTD/svg11.dtd">
<svg t="1741152995876" class="icon" viewBox="0 0 1151 1024" version="1.1" xmlns="http://www.w3.org/2000/svg" p-id="9791"
     xmlns:xlink="http://www.w3.org/1999/xlink" width="224.8046875" height="200">
  <path
    d="M11.435989 808.600202C5.695995 788.200221 21.03998 768.00024 42.23996 768.00024H1109.79896c21.19998 0 36.599966 20.199981 30.799971 40.599962l-7.999993 28.799973C1101.398967 947.800071 1000.799062 1024 885.999169 1024H264.199752c-112.959894 0-213.6598-76.199929-244.70577-186.599825l-8.057993-28.799973z"
    p-id="9792" fill="#92B8DD"></path>
  <path
    d="M511.99952 32.00093A31.91997 31.91997 0 0 1 534.399499 1.482959c13.399987-4.197996 27.799974 0.727999 35.799966 12.169988l447.99958 639.9474c6.799994 9.799991 7.599993 22.599979 2.199998 33.199969-5.599995 10.59999-18.199983 17.199984-28.399973 17.199984H543.99949c-17.599984 0-31.99997-14.399987-31.99997-31.99997V32.00093z m-63.99994 639.9994c0 17.599984-14.399987 31.99997-31.99997 31.99997H159.99985c-11.399989 0-21.959979-7.799993-27.679974-15.999985-5.719995-9.799991-5.759995-21.999979-0.1-31.79997l255.97976-447.99958c7.199993-12.679988 21.999979-18.839982 35.999966-15.119986 13.999987 3.719997 23.799978 16.319985 23.799978 30.919971v447.99958z"
    p-id="9793" fill="#EDC4DC"></path>
</svg>
